<svg xmlns="http://www.w3.org/2000/svg" viewBox="0 0 4800 3600" width="4800" height="3600">
<rect width="4800" height="3600" fill="#FFFFFF"/>

<path d="M165 0H393V522H697C1043 522 1215 731 1215 1006C1215 1281 1044 1490 699 1490H165ZM393 715V1295H673C894 1295 984 1174 984 1006C984 838 894 715 675 715Z" transform="translate(430.000,340.000) scale(0.02685547,-0.02685547)" fill="#536A81"/>
<path d="M165 0H393V563H697C701 563 706 563 710 563L1012 0H1271L943 602C1124 670 1215 822 1215 1022C1215 1297 1044 1490 699 1490H165ZM393 758V1295H673C893 1295 984 1190 984 1022C984 855 893 758 675 758Z" transform="translate(474.288,340.000) scale(0.02685547,-0.02685547)" fill="#536A81"/>
<path d="M393 1490H165V0H393Z" transform="translate(518.925,340.000) scale(0.02685547,-0.02685547)" fill="#536A81"/>
<path d="M165 0H387V802C387 916 382 1107 378 1263C435 1079 494 892 528 802L837 0H1032L1337 802C1371 895 1433 1087 1486 1268C1483 1102 1478 912 1478 802V0H1705V1490H1367L1047 635C1018 553 971 387 936 254C902 390 855 555 826 635L501 1490H165Z" transform="translate(542.911,340.000) scale(0.02685547,-0.02685547)" fill="#536A81"/>
<path d="M51 0H298L431 393H1017L1154 0H1401L861 1490H581ZM496 583 579 829C616 943 662 1098 720 1311C779 1100 824 948 864 829L950 583Z" transform="translate(602.104,340.000) scale(0.02685547,-0.02685547)" fill="#536A81"/>
<path d="M165 0H393V563H697C701 563 706 563 710 563L1012 0H1271L943 602C1124 670 1215 822 1215 1022C1215 1297 1044 1490 699 1490H165ZM393 758V1295H673C893 1295 984 1190 984 1022C984 855 893 758 675 758Z" transform="translate(650.098,340.000) scale(0.02685547,-0.02685547)" fill="#536A81"/>
<path d="M600 0H828V593L1375 1490H1110L833 1015C789 940 753 873 716 783C679 871 643 937 597 1015L317 1490H51L600 593Z" transform="translate(694.735,340.000) scale(0.02685547,-0.02685547)" fill="#536A81"/>
<path d="M165 0H1068V196H393V1490H165Z" transform="translate(765.694,340.000) scale(0.02685547,-0.02685547)" fill="#536A81"/>
<path d="M786 -20C1172 -20 1457 268 1457 744C1457 1222 1172 1510 786 1510C399 1510 113 1222 113 744C113 268 399 -20 786 -20ZM786 188C530 188 339 384 339 744C339 1105 530 1302 786 1302C1040 1302 1231 1106 1231 744C1231 384 1040 188 786 188Z" transform="translate(805.792,340.000) scale(0.02685547,-0.02685547)" fill="#536A81"/>
<path d="M791 -20C1152 -20 1413 216 1413 593V764H825V576H1190C1185 338 1028 188 792 188C529 188 339 386 339 745C339 1105 532 1302 783 1302C979 1302 1112 1193 1166 1019H1400C1350 1309 1102 1510 781 1510C395 1510 113 1220 113 744C113 273 386 -20 791 -20Z" transform="translate(856.956,340.000) scale(0.02685547,-0.02685547)" fill="#536A81"/>
<path d="M786 -20C1172 -20 1457 268 1457 744C1457 1222 1172 1510 786 1510C399 1510 113 1222 113 744C113 268 399 -20 786 -20ZM786 188C530 188 339 384 339 744C339 1105 530 1302 786 1302C1040 1302 1231 1106 1231 744C1231 384 1040 188 786 188Z" transform="translate(907.071,340.000) scale(0.02685547,-0.02685547)" fill="#536A81"/>
<path d="M165 0H1068V196H393V1490H165Z" transform="translate(981.897,340.000) scale(0.02685547,-0.02685547)" fill="#536A81"/>
<path d="M786 -20C1172 -20 1457 268 1457 744C1457 1222 1172 1510 786 1510C399 1510 113 1222 113 744C113 268 399 -20 786 -20ZM786 188C530 188 339 384 339 744C339 1105 530 1302 786 1302C1040 1302 1231 1106 1231 744C1231 384 1040 188 786 188Z" transform="translate(1021.996,340.000) scale(0.02685547,-0.02685547)" fill="#536A81"/>
<path d="M784 -20C1113 -20 1353 188 1399 483H1169C1131 293 972 188 786 188C531 188 339 382 339 744C339 1104 530 1302 786 1302C972 1302 1131 1198 1169 1008H1398C1348 1324 1098 1510 784 1510C398 1510 113 1222 113 744C113 268 397 -20 784 -20Z" transform="translate(1073.159,340.000) scale(0.02685547,-0.02685547)" fill="#536A81"/>
<path d="M165 0H393V468L602 692L1083 0H1353L761 845L1347 1490H1057L639 1027C544 920 466 824 390 717L393 1014V1490H165Z" transform="translate(1122.496,340.000) scale(0.02685547,-0.02685547)" fill="#536A81"/>
<path d="M759 -23C1115 -23 1351 199 1351 512V1490H1122V531C1122 330 983 184 759 184C534 184 393 330 393 531V1490H165V512C165 199 400 -23 759 -23Z" transform="translate(1169.309,340.000) scale(0.02685547,-0.02685547)" fill="#536A81"/>
<path d="M165 0H393V522H697C1043 522 1215 731 1215 1006C1215 1281 1044 1490 699 1490H165ZM393 715V1295H673C894 1295 984 1174 984 1006C984 838 894 715 675 715Z" transform="translate(1219.021,340.000) scale(0.02685547,-0.02685547)" fill="#536A81"/>
<rect x="430" y="385" width="820" height="3" fill="#BCC6D1"/>
<polygon points="622.00,946.00 1155.00,716.40 1155.00,896.80 622.00,1126.40" fill="#102B4C"/>
<polygon points="622.00,1167.40 1155.00,937.80 1155.00,1118.20 622.00,1347.80" fill="#3C6178"/>
<polygon points="892.60,1274.00 1155.00,1380.60 1155.00,1520.00 892.60,1413.40" fill="#0D817D"/>
<rect x="1490" y="720" width="4" height="785" fill="#BCC6D1"/>
<path d="M135 0H1134V253H440V628H1080V877H440V1237H1132V1490H135Z" transform="translate(1670.000,1230.000) scale(0.25390625,-0.25390625)" fill="#102B4C"/>
<path d="M135 0H438V703C438 815 430 1034 427 1215C480 1015 540 806 575 703L826 0H1083L1330 703C1365 809 1428 1026 1478 1227C1475 1039 1467 815 1467 703V0H1774V1490H1304L1066 806C1036 711 990 512 956 351C921 513 875 712 845 806L603 1490H135Z" transform="translate(1988.859,1230.000) scale(0.25390625,-0.25390625)" fill="#102B4C"/>
<path d="M786 -20C1162 -20 1394 233 1428 510H1119C1089 348 961 251 791 251C561 251 404 421 404 744C404 1060 559 1239 792 1239C962 1239 1090 1143 1118 981H1427C1383 1316 1125 1510 786 1510C393 1510 94 1231 94 744C94 260 389 -20 786 -20Z" transform="translate(2476.312,1230.000) scale(0.25390625,-0.25390625)" fill="#102B4C"/>
<path d="M440 1490H135V0H440Z" transform="translate(2863.980,1230.000) scale(0.25390625,-0.25390625)" fill="#102B4C"/>
<path d="M180 0H1097V168H370V668H1039V836H370V1322H1088V1490H180Z" transform="translate(1683.000,1420.000) scale(0.04296875,-0.04296875)" fill="#536A81"/>
<path d="M471 -26C660 -26 765 73 803 152H815V0H992V737C992 1086 723 1132 573 1132C400 1132 208 1070 122 867L295 810C330 888 417 974 578 974C733 974 812 894 812 755V749C812 666 724 672 525 647C318 621 90 574 90 318C90 98 259 -26 471 -26ZM502 133C368 133 271 193 271 309C271 436 386 478 517 495C586 504 782 524 812 559V404C812 267 701 133 502 133Z" transform="translate(1735.895,1420.000) scale(0.04296875,-0.04296875)" fill="#536A81"/>
<path d="M158 0H338V700C338 851 456 960 617 960C665 960 714 952 725 950V1131C704 1132 660 1134 634 1134C501 1134 385 1059 344 946H332V1118H158Z" transform="translate(1785.309,1420.000) scale(0.04296875,-0.04296875)" fill="#536A81"/>
<path d="M338 1490H158V0H338Z" transform="translate(1818.438,1420.000) scale(0.04296875,-0.04296875)" fill="#536A81"/>
<path d="M140 -405C159 -414 208 -426 272 -426C430 -426 538 -345 606 -167L1097 1118H901L661 455C626 358 600 261 575 168C549 261 524 357 489 455L251 1118H54L481 -6L449 -99C394 -259 315 -283 205 -254L186 -249Z" transform="translate(1839.750,1420.000) scale(0.04296875,-0.04296875)" fill="#536A81"/>
<path d="M471 -26C660 -26 765 73 803 152H815V0H992V737C992 1086 723 1132 573 1132C400 1132 208 1070 122 867L295 810C330 888 417 974 578 974C733 974 812 894 812 755V749C812 666 724 672 525 647C318 621 90 574 90 318C90 98 259 -26 471 -26ZM502 133C368 133 271 193 271 309C271 436 386 478 517 495C586 504 782 524 812 559V404C812 267 701 133 502 133Z" transform="translate(1913.957,1420.000) scale(0.04296875,-0.04296875)" fill="#536A81"/>
<path d="M338 670C338 861 459 970 620 970C776 970 872 867 872 695V0H1052V710C1052 993 900 1132 674 1132C524 1132 404 1069 332 911L331 1118H158V0H338Z" transform="translate(1963.371,1420.000) scale(0.04296875,-0.04296875)" fill="#536A81"/>
<path d="M577 -24C790 -24 865 111 902 173H922V0H1096V1490H916V939H902C865 998 796 1132 578 1132C299 1132 104 910 104 556C104 200 298 -24 577 -24ZM604 137C395 137 287 323 287 558C287 790 392 971 604 971C810 971 918 805 918 558C918 309 807 137 604 137Z" transform="translate(2015.363,1420.000) scale(0.04296875,-0.04296875)" fill="#536A81"/>
<path d="M180 0H361V851C361 966 357 1142 354 1284C413 1109 471 935 504 851L842 0H1007L1340 851C1374 938 1436 1117 1490 1287C1486 1132 1483 961 1483 851V0H1670V1490H1399L1037 550C1008 475 962 328 927 211C892 332 845 478 817 550L450 1490H180Z" transform="translate(2093.996,1420.000) scale(0.04296875,-0.04296875)" fill="#536A81"/>
<path d="M628 -24C857 -24 1024 91 1076 260L902 308C860 194 761 136 629 136C431 136 295 264 286 498H1094V573C1094 986 844 1132 607 1132C302 1132 104 893 104 550C104 206 304 -24 628 -24ZM287 650C298 821 415 972 607 972C791 972 894 840 911 650Z" transform="translate(2173.488,1420.000) scale(0.04296875,-0.04296875)" fill="#536A81"/>
<path d="M471 -26C660 -26 765 73 803 152H815V0H992V737C992 1086 723 1132 573 1132C400 1132 208 1070 122 867L295 810C330 888 417 974 578 974C733 974 812 894 812 755V749C812 666 724 672 525 647C318 621 90 574 90 318C90 98 259 -26 471 -26ZM502 133C368 133 271 193 271 309C271 436 386 478 517 495C586 504 782 524 812 559V404C812 267 701 133 502 133Z" transform="translate(2224.793,1420.000) scale(0.04296875,-0.04296875)" fill="#536A81"/>
<path d="M338 670C338 861 459 970 620 970C776 970 872 867 872 695V0H1052V710C1052 993 900 1132 674 1132C524 1132 404 1069 332 911L331 1118H158V0H338Z" transform="translate(2274.207,1420.000) scale(0.04296875,-0.04296875)" fill="#536A81"/>
<path d="M158 0H338V1118H158ZM249 1301C318 1301 375 1354 375 1420C375 1486 318 1539 249 1539C181 1539 124 1486 124 1420C124 1354 181 1301 249 1301Z" transform="translate(2326.199,1420.000) scale(0.04296875,-0.04296875)" fill="#536A81"/>
<path d="M338 670C338 861 459 970 620 970C776 970 872 867 872 695V0H1052V710C1052 993 900 1132 674 1132C524 1132 404 1069 332 911L331 1118H158V0H338Z" transform="translate(2347.512,1420.000) scale(0.04296875,-0.04296875)" fill="#536A81"/>
<path d="M611 -442C883 -442 1098 -318 1098 -29V1118H923V939H906C868 999 796 1132 580 1132C301 1132 104 910 104 564C104 213 308 18 576 18C792 18 863 141 901 205H918V-19C918 -203 789 -285 611 -285C414 -285 344 -185 297 -120L151 -214C220 -337 363 -442 611 -442ZM606 178C396 178 287 338 287 568C287 791 393 971 606 971C812 971 920 805 920 568C920 324 809 178 606 178Z" transform="translate(2399.504,1420.000) scale(0.04296875,-0.04296875)" fill="#536A81"/>
<path d="M678 1118H420V1227C420 1335 468 1393 579 1393C629 1393 657 1382 676 1376L726 1530C699 1542 643 1560 558 1560C395 1560 240 1461 240 1267V1118H20V964H240V0H420V964H678Z" transform="translate(2453.473,1420.000) scale(0.04296875,-0.04296875)" fill="#536A81"/>
<path d="M537 -14C684 -14 806 46 879 209V0H1053V1118H872V448C872 257 751 148 591 148C435 148 338 251 338 423V1118H158V408C158 125 311 -14 537 -14Z" transform="translate(2486.043,1420.000) scale(0.04296875,-0.04296875)" fill="#536A81"/>
<path d="M338 1490H158V0H338Z" transform="translate(2538.078,1420.000) scale(0.04296875,-0.04296875)" fill="#536A81"/>
<path d="M783 -20C1088 -20 1332 166 1384 469H1194C1152 266 978 156 783 156C516 156 307 363 307 744C307 1126 515 1334 783 1334C977 1334 1152 1225 1194 1021H1384C1331 1328 1085 1510 783 1510C401 1510 122 1217 122 744C122 272 401 -20 783 -20Z" transform="translate(2584.141,1420.000) scale(0.04296875,-0.04296875)" fill="#536A81"/>
<path d="M471 -26C660 -26 765 73 803 152H815V0H992V737C992 1086 723 1132 573 1132C400 1132 208 1070 122 867L295 810C330 888 417 974 578 974C733 974 812 894 812 755V749C812 666 724 672 525 647C318 621 90 574 90 318C90 98 259 -26 471 -26ZM502 133C368 133 271 193 271 309C271 436 386 478 517 495C586 504 782 524 812 559V404C812 267 701 133 502 133Z" transform="translate(2648.422,1420.000) scale(0.04296875,-0.04296875)" fill="#536A81"/>
<path d="M158 0H338V700C338 851 456 960 617 960C665 960 714 952 725 950V1131C704 1132 660 1134 634 1134C501 1134 385 1059 344 946H332V1118H158Z" transform="translate(2697.836,1420.000) scale(0.04296875,-0.04296875)" fill="#536A81"/>
<path d="M628 -24C857 -24 1024 91 1076 260L902 308C860 194 761 136 629 136C431 136 295 264 286 498H1094V573C1094 986 844 1132 607 1132C302 1132 104 893 104 550C104 206 304 -24 628 -24ZM287 650C298 821 415 972 607 972C791 972 894 840 911 650Z" transform="translate(2730.965,1420.000) scale(0.04296875,-0.04296875)" fill="#536A81"/>
<path d="M628 -24C857 -24 1024 91 1076 260L902 308C860 194 761 136 629 136C431 136 295 264 286 498H1094V573C1094 986 844 1132 607 1132C302 1132 104 893 104 550C104 206 304 -24 628 -24ZM287 650C298 821 415 972 607 972C791 972 894 840 911 650Z" transform="translate(2782.270,1420.000) scale(0.04296875,-0.04296875)" fill="#536A81"/>
<path d="M158 0H338V700C338 851 456 960 617 960C665 960 714 952 725 950V1131C704 1132 660 1134 634 1134C501 1134 385 1059 344 946H332V1118H158Z" transform="translate(2833.574,1420.000) scale(0.04296875,-0.04296875)" fill="#536A81"/>
<path d="M370 1490H180V0H370Z" transform="translate(2891.453,1420.000) scale(0.04296875,-0.04296875)" fill="#536A81"/>
<path d="M338 670C338 861 459 970 620 970C776 970 872 867 872 695V0H1052V710C1052 993 900 1132 674 1132C524 1132 404 1069 332 911L331 1118H158V0H338Z" transform="translate(2915.086,1420.000) scale(0.04296875,-0.04296875)" fill="#536A81"/>
<path d="M598 1118H368V1384H188V1118H20V964H188V276C188 93 302 -14 495 -14C541 -14 592 -7 629 6L592 158C562 152 523 146 500 146C405 146 368 190 368 290V964H598Z" transform="translate(2967.078,1420.000) scale(0.04296875,-0.04296875)" fill="#536A81"/>
<path d="M628 -24C857 -24 1024 91 1076 260L902 308C860 194 761 136 629 136C431 136 295 264 286 498H1094V573C1094 986 844 1132 607 1132C302 1132 104 893 104 550C104 206 304 -24 628 -24ZM287 650C298 821 415 972 607 972C791 972 894 840 911 650Z" transform="translate(2995.867,1420.000) scale(0.04296875,-0.04296875)" fill="#536A81"/>
<path d="M338 1490H158V0H338Z" transform="translate(3047.172,1420.000) scale(0.04296875,-0.04296875)" fill="#536A81"/>
<path d="M338 1490H158V0H338Z" transform="translate(3068.484,1420.000) scale(0.04296875,-0.04296875)" fill="#536A81"/>
<path d="M158 0H338V1118H158ZM249 1301C318 1301 375 1354 375 1420C375 1486 318 1539 249 1539C181 1539 124 1486 124 1420C124 1354 181 1301 249 1301Z" transform="translate(3089.797,1420.000) scale(0.04296875,-0.04296875)" fill="#536A81"/>
<path d="M611 -442C883 -442 1098 -318 1098 -29V1118H923V939H906C868 999 796 1132 580 1132C301 1132 104 910 104 564C104 213 308 18 576 18C792 18 863 141 901 205H918V-19C918 -203 789 -285 611 -285C414 -285 344 -185 297 -120L151 -214C220 -337 363 -442 611 -442ZM606 178C396 178 287 338 287 568C287 791 393 971 606 971C812 971 920 805 920 568C920 324 809 178 606 178Z" transform="translate(3111.109,1420.000) scale(0.04296875,-0.04296875)" fill="#536A81"/>
<path d="M628 -24C857 -24 1024 91 1076 260L902 308C860 194 761 136 629 136C431 136 295 264 286 498H1094V573C1094 986 844 1132 607 1132C302 1132 104 893 104 550C104 206 304 -24 628 -24ZM287 650C298 821 415 972 607 972C791 972 894 840 911 650Z" transform="translate(3165.078,1420.000) scale(0.04296875,-0.04296875)" fill="#536A81"/>
<path d="M338 670C338 861 459 970 620 970C776 970 872 867 872 695V0H1052V710C1052 993 900 1132 674 1132C524 1132 404 1069 332 911L331 1118H158V0H338Z" transform="translate(3216.383,1420.000) scale(0.04296875,-0.04296875)" fill="#536A81"/>
<path d="M613 -24C832 -24 1010 95 1070 294L898 343C865 222 763 137 613 137C390 137 287 332 287 552C287 775 390 971 613 971C760 971 860 889 893 774L1066 823C1005 1018 829 1132 613 1132C309 1132 104 902 104 552C104 207 309 -24 613 -24Z" transform="translate(3268.375,1420.000) scale(0.04296875,-0.04296875)" fill="#536A81"/>
<path d="M628 -24C857 -24 1024 91 1076 260L902 308C860 194 761 136 629 136C431 136 295 264 286 498H1094V573C1094 986 844 1132 607 1132C302 1132 104 893 104 550C104 206 304 -24 628 -24ZM287 650C298 821 415 972 607 972C791 972 894 840 911 650Z" transform="translate(3318.648,1420.000) scale(0.04296875,-0.04296875)" fill="#536A81"/>
<rect x="250" y="1940" width="4300" height="3" fill="#E2E8F0"/>
<rect x="2398" y="2040" width="3" height="1260" fill="#E2E8F0"/>
<path d="M665 -25C1015 -25 1217 159 1217 412C1217 681 978 783 788 832L643 870C529 900 375 953 375 1094C375 1220 489 1312 670 1312C839 1312 960 1234 975 1098H1197C1190 1335 981 1510 675 1510C375 1510 147 1339 147 1081C147 877 291 752 535 687L709 639C869 596 992 545 992 415C992 271 853 175 664 175C492 175 348 251 335 414H106C120 142 330 -25 665 -25Z" transform="translate(520.000,2180.000) scale(0.02685547,-0.02685547)" fill="#536A81"/>
<path d="M90 1294H555V0H784V1294H1247V1490H90Z" transform="translate(563.530,2180.000) scale(0.02685547,-0.02685547)" fill="#536A81"/>
<path d="M51 0H298L431 393H1017L1154 0H1401L861 1490H581ZM496 583 579 829C616 943 662 1098 720 1311C779 1100 824 948 864 829L950 583Z" transform="translate(607.436,2180.000) scale(0.02685547,-0.02685547)" fill="#536A81"/>
<path d="M165 0H396V795C396 872 388 1026 379 1213C487 1013 544 910 617 793L1120 0H1384V1490H1153V642C1153 556 1157 417 1168 273C1102 416 1035 529 989 603L428 1490H165Z" transform="translate(654.430,2180.000) scale(0.02685547,-0.02685547)" fill="#536A81"/>
<path d="M650 0C1103 0 1366 281 1366 747C1366 1210 1103 1490 664 1490H165V0ZM393 200V1290H649C974 1290 1142 1097 1142 747C1142 394 974 200 637 200Z" transform="translate(704.029,2180.000) scale(0.02685547,-0.02685547)" fill="#536A81"/>
<path d="M51 0H298L431 393H1017L1154 0H1401L861 1490H581ZM496 583 579 829C616 943 662 1098 720 1311C779 1100 824 948 864 829L950 583Z" transform="translate(751.721,2180.000) scale(0.02685547,-0.02685547)" fill="#536A81"/>
<path d="M165 0H1068V196H393V1490H165Z" transform="translate(798.715,2180.000) scale(0.02685547,-0.02685547)" fill="#536A81"/>
<path d="M786 -20C1172 -20 1457 268 1457 744C1457 1222 1172 1510 786 1510C399 1510 113 1222 113 744C113 268 399 -20 786 -20ZM786 188C530 188 339 384 339 744C339 1105 530 1302 786 1302C1040 1302 1231 1106 1231 744C1231 384 1040 188 786 188Z" transform="translate(837.814,2180.000) scale(0.02685547,-0.02685547)" fill="#536A81"/>
<path d="M165 0H396V795C396 872 388 1026 379 1213C487 1013 544 910 617 793L1120 0H1384V1490H1153V642C1153 556 1157 417 1168 273C1102 416 1035 529 989 603L428 1490H165Z" transform="translate(887.977,2180.000) scale(0.02685547,-0.02685547)" fill="#536A81"/>
<path d="M165 0H1109V196H393V655H1053V850H393V1294H1103V1490H165Z" transform="translate(937.576,2180.000) scale(0.02685547,-0.02685547)" fill="#536A81"/>
<path d="M165 0H1109V196H393V655H1053V850H393V1294H1103V1490H165Z" transform="translate(1001.406,2180.000) scale(0.02685547,-0.02685547)" fill="#536A81"/>
<path d="M165 0H387V802C387 916 382 1107 378 1263C435 1079 494 892 528 802L837 0H1032L1337 802C1371 895 1433 1087 1486 1268C1483 1102 1478 912 1478 802V0H1705V1490H1367L1047 635C1018 553 971 387 936 254C902 390 855 555 826 635L501 1490H165Z" transform="translate(1042.572,2180.000) scale(0.02685547,-0.02685547)" fill="#536A81"/>
<path d="M165 0H738C1084 0 1241 173 1241 402C1241 631 1080 761 931 769V784C1069 818 1183 913 1183 1099C1183 1319 1030 1490 714 1490H165ZM393 196V669H724C902 669 1015 554 1015 413C1015 289 929 196 715 196ZM393 845V1295H698C875 1295 959 1202 959 1080C959 937 843 845 692 845Z" transform="translate(1100.765,2180.000) scale(0.02685547,-0.02685547)" fill="#536A81"/>
<path d="M165 0H1068V196H393V1490H165Z" transform="translate(1144.886,2180.000) scale(0.02685547,-0.02685547)" fill="#536A81"/>
<path d="M165 0H1109V196H393V655H1053V850H393V1294H1103V1490H165Z" transform="translate(1183.984,2180.000) scale(0.02685547,-0.02685547)" fill="#536A81"/>
<path d="M165 0H387V802C387 916 382 1107 378 1263C435 1079 494 892 528 802L837 0H1032L1337 802C1371 895 1433 1087 1486 1268C1483 1102 1478 912 1478 802V0H1705V1490H1367L1047 635C1018 553 971 387 936 254C902 390 855 555 826 635L501 1490H165Z" transform="translate(1225.151,2180.000) scale(0.02685547,-0.02685547)" fill="#536A81"/>
<path d="M665 -25C1015 -25 1217 159 1217 412C1217 681 978 783 788 832L643 870C529 900 375 953 375 1094C375 1220 489 1312 670 1312C839 1312 960 1234 975 1098H1197C1190 1335 981 1510 675 1510C375 1510 147 1339 147 1081C147 877 291 752 535 687L709 639C869 596 992 545 992 415C992 271 853 175 664 175C492 175 348 251 335 414H106C120 142 330 -25 665 -25Z" transform="translate(2700.000,2180.000) scale(0.02685547,-0.02685547)" fill="#536A81"/>
<path d="M393 1490H165V0H393Z" transform="translate(2743.530,2180.000) scale(0.02685547,-0.02685547)" fill="#536A81"/>
<path d="M165 0H396V795C396 872 388 1026 379 1213C487 1013 544 910 617 793L1120 0H1384V1490H1153V642C1153 556 1157 417 1168 273C1102 416 1035 529 989 603L428 1490H165Z" transform="translate(2766.515,2180.000) scale(0.02685547,-0.02685547)" fill="#536A81"/>
<path d="M791 -20C1152 -20 1413 216 1413 593V764H825V576H1190C1185 338 1028 188 792 188C529 188 339 386 339 745C339 1105 532 1302 783 1302C979 1302 1112 1193 1166 1019H1400C1350 1309 1102 1510 781 1510C395 1510 113 1220 113 744C113 273 386 -20 791 -20Z" transform="translate(2816.114,2180.000) scale(0.02685547,-0.02685547)" fill="#536A81"/>
<path d="M165 0H1068V196H393V1490H165Z" transform="translate(2865.230,2180.000) scale(0.02685547,-0.02685547)" fill="#536A81"/>
<path d="M165 0H1109V196H393V655H1053V850H393V1294H1103V1490H165Z" transform="translate(2904.329,2180.000) scale(0.02685547,-0.02685547)" fill="#536A81"/>
<path d="M805 724H143V533H805Z" transform="translate(2945.495,2180.000) scale(0.02685547,-0.02685547)" fill="#536A81"/>
<path d="M784 -20C1113 -20 1353 188 1399 483H1169C1131 293 972 188 786 188C531 188 339 382 339 744C339 1104 530 1302 786 1302C972 1302 1131 1198 1169 1008H1398C1348 1324 1098 1510 784 1510C398 1510 113 1222 113 744C113 268 397 -20 784 -20Z" transform="translate(2978.927,2180.000) scale(0.02685547,-0.02685547)" fill="#536A81"/>
<path d="M786 -20C1172 -20 1457 268 1457 744C1457 1222 1172 1510 786 1510C399 1510 113 1222 113 744C113 268 399 -20 786 -20ZM786 188C530 188 339 384 339 744C339 1105 530 1302 786 1302C1040 1302 1231 1106 1231 744C1231 384 1040 188 786 188Z" transform="translate(3027.264,2180.000) scale(0.02685547,-0.02685547)" fill="#536A81"/>
<path d="M165 0H1068V196H393V1490H165Z" transform="translate(3077.427,2180.000) scale(0.02685547,-0.02685547)" fill="#536A81"/>
<path d="M786 -20C1172 -20 1457 268 1457 744C1457 1222 1172 1510 786 1510C399 1510 113 1222 113 744C113 268 399 -20 786 -20ZM786 188C530 188 339 384 339 744C339 1105 530 1302 786 1302C1040 1302 1231 1106 1231 744C1231 384 1040 188 786 188Z" transform="translate(3116.526,2180.000) scale(0.02685547,-0.02685547)" fill="#536A81"/>
<path d="M759 -23C1115 -23 1351 199 1351 512V1490H1122V531C1122 330 983 184 759 184C534 184 393 330 393 531V1490H165V512C165 199 400 -23 759 -23Z" transform="translate(3166.689,2180.000) scale(0.02685547,-0.02685547)" fill="#536A81"/>
<path d="M165 0H393V563H697C701 563 706 563 710 563L1012 0H1271L943 602C1124 670 1215 822 1215 1022C1215 1297 1044 1490 699 1490H165ZM393 758V1295H673C893 1295 984 1190 984 1022C984 855 893 758 675 758Z" transform="translate(3215.402,2180.000) scale(0.02685547,-0.02685547)" fill="#536A81"/>
<path d="M590 0H869L1401 1490H1154L872 661C835 548 789 395 731 183C672 391 625 548 587 661L297 1490H51Z" transform="translate(3281.702,2180.000) scale(0.02685547,-0.02685547)" fill="#536A81"/>
<path d="M165 0H1109V196H393V655H1053V850H393V1294H1103V1490H165Z" transform="translate(3328.696,2180.000) scale(0.02685547,-0.02685547)" fill="#536A81"/>
<path d="M165 0H393V563H697C701 563 706 563 710 563L1012 0H1271L943 602C1124 670 1215 822 1215 1022C1215 1297 1044 1490 699 1490H165ZM393 758V1295H673C893 1295 984 1190 984 1022C984 855 893 758 675 758Z" transform="translate(3369.863,2180.000) scale(0.02685547,-0.02685547)" fill="#536A81"/>
<path d="M665 -25C1015 -25 1217 159 1217 412C1217 681 978 783 788 832L643 870C529 900 375 953 375 1094C375 1220 489 1312 670 1312C839 1312 960 1234 975 1098H1197C1190 1335 981 1510 675 1510C375 1510 147 1339 147 1081C147 877 291 752 535 687L709 639C869 596 992 545 992 415C992 271 853 175 664 175C492 175 348 251 335 414H106C120 142 330 -25 665 -25Z" transform="translate(3413.500,2180.000) scale(0.02685547,-0.02685547)" fill="#536A81"/>
<path d="M393 1490H165V0H393Z" transform="translate(3457.030,2180.000) scale(0.02685547,-0.02685547)" fill="#536A81"/>
<path d="M786 -20C1172 -20 1457 268 1457 744C1457 1222 1172 1510 786 1510C399 1510 113 1222 113 744C113 268 399 -20 786 -20ZM786 188C530 188 339 384 339 744C339 1105 530 1302 786 1302C1040 1302 1231 1106 1231 744C1231 384 1040 188 786 188Z" transform="translate(3480.015,2180.000) scale(0.02685547,-0.02685547)" fill="#536A81"/>
<path d="M165 0H396V795C396 872 388 1026 379 1213C487 1013 544 910 617 793L1120 0H1384V1490H1153V642C1153 556 1157 417 1168 273C1102 416 1035 529 989 603L428 1490H165Z" transform="translate(3530.178,2180.000) scale(0.02685547,-0.02685547)" fill="#536A81"/>
<rect x="520" y="2225" width="760" height="3" fill="#BCC6D1"/>
<rect x="2700" y="2225" width="900" height="3" fill="#BCC6D1"/>
<polygon points="822.00,2686.00 1290.00,2484.40 1290.00,2642.80 822.00,2844.40" fill="#102B4C"/>
<polygon points="822.00,2880.40 1290.00,2678.80 1290.00,2837.20 822.00,3038.80" fill="#3C6178"/>
<polygon points="1059.60,2974.00 1290.00,3067.60 1290.00,3190.00 1059.60,3096.40" fill="#0D817D"/>
<polygon points="2658.00,2724.00 2970.00,2589.60 2970.00,2695.20 2658.00,2829.60" fill="#111827"/>
<polygon points="2658.00,2853.60 2970.00,2719.20 2970.00,2824.80 2658.00,2959.20" fill="#111827"/>
<polygon points="2816.40,2916.00 2970.00,2978.40 2970.00,3060.00 2816.40,2997.60" fill="#111827"/>
<rect x="3190" y="2615" width="3" height="430" fill="#BCC6D1"/>
<path d="M135 0H1134V253H440V628H1080V877H440V1237H1132V1490H135Z" transform="translate(3300.000,2830.000) scale(0.14648438,-0.14648438)" fill="#111827"/>
<path d="M135 0H438V703C438 815 430 1034 427 1215C480 1015 540 806 575 703L826 0H1083L1330 703C1365 809 1428 1026 1478 1227C1475 1039 1467 815 1467 703V0H1774V1490H1304L1066 806C1036 711 990 512 956 351C921 513 875 712 845 806L603 1490H135Z" transform="translate(3484.227,2830.000) scale(0.14648438,-0.14648438)" fill="#111827"/>
<path d="M786 -20C1162 -20 1394 233 1428 510H1119C1089 348 961 251 791 251C561 251 404 421 404 744C404 1060 559 1239 792 1239C962 1239 1090 1143 1118 981H1427C1383 1316 1125 1510 786 1510C393 1510 94 1231 94 744C94 260 389 -20 786 -20Z" transform="translate(3765.719,2830.000) scale(0.14648438,-0.14648438)" fill="#111827"/>
<path d="M440 1490H135V0H440Z" transform="translate(3989.643,2830.000) scale(0.14648438,-0.14648438)" fill="#111827"/>
<path d="M180 0H1097V168H370V668H1039V836H370V1322H1088V1490H180Z" transform="translate(3306.000,2960.000) scale(0.02636719,-0.02636719)" fill="#111827"/>
<path d="M471 -26C660 -26 765 73 803 152H815V0H992V737C992 1086 723 1132 573 1132C400 1132 208 1070 122 867L295 810C330 888 417 974 578 974C733 974 812 894 812 755V749C812 666 724 672 525 647C318 621 90 574 90 318C90 98 259 -26 471 -26ZM502 133C368 133 271 193 271 309C271 436 386 478 517 495C586 504 782 524 812 559V404C812 267 701 133 502 133Z" transform="translate(3338.458,2960.000) scale(0.02636719,-0.02636719)" fill="#111827"/>
<path d="M158 0H338V700C338 851 456 960 617 960C665 960 714 952 725 950V1131C704 1132 660 1134 634 1134C501 1134 385 1059 344 946H332V1118H158Z" transform="translate(3368.780,2960.000) scale(0.02636719,-0.02636719)" fill="#111827"/>
<path d="M338 1490H158V0H338Z" transform="translate(3389.109,2960.000) scale(0.02636719,-0.02636719)" fill="#111827"/>
<path d="M140 -405C159 -414 208 -426 272 -426C430 -426 538 -345 606 -167L1097 1118H901L661 455C626 358 600 261 575 168C549 261 524 357 489 455L251 1118H54L481 -6L449 -99C394 -259 315 -283 205 -254L186 -249Z" transform="translate(3402.188,2960.000) scale(0.02636719,-0.02636719)" fill="#111827"/>
<path d="M471 -26C660 -26 765 73 803 152H815V0H992V737C992 1086 723 1132 573 1132C400 1132 208 1070 122 867L295 810C330 888 417 974 578 974C733 974 812 894 812 755V749C812 666 724 672 525 647C318 621 90 574 90 318C90 98 259 -26 471 -26ZM502 133C368 133 271 193 271 309C271 436 386 478 517 495C586 504 782 524 812 559V404C812 267 701 133 502 133Z" transform="translate(3447.724,2960.000) scale(0.02636719,-0.02636719)" fill="#111827"/>
<path d="M338 670C338 861 459 970 620 970C776 970 872 867 872 695V0H1052V710C1052 993 900 1132 674 1132C524 1132 404 1069 332 911L331 1118H158V0H338Z" transform="translate(3478.046,2960.000) scale(0.02636719,-0.02636719)" fill="#111827"/>
<path d="M577 -24C790 -24 865 111 902 173H922V0H1096V1490H916V939H902C865 998 796 1132 578 1132C299 1132 104 910 104 556C104 200 298 -24 577 -24ZM604 137C395 137 287 323 287 558C287 790 392 971 604 971C810 971 918 805 918 558C918 309 807 137 604 137Z" transform="translate(3509.950,2960.000) scale(0.02636719,-0.02636719)" fill="#111827"/>
<path d="M180 0H361V851C361 966 357 1142 354 1284C413 1109 471 935 504 851L842 0H1007L1340 851C1374 938 1436 1117 1490 1287C1486 1132 1483 961 1483 851V0H1670V1490H1399L1037 550C1008 475 962 328 927 211C892 332 845 478 817 550L450 1490H180Z" transform="translate(3558.202,2960.000) scale(0.02636719,-0.02636719)" fill="#111827"/>
<path d="M628 -24C857 -24 1024 91 1076 260L902 308C860 194 761 136 629 136C431 136 295 264 286 498H1094V573C1094 986 844 1132 607 1132C302 1132 104 893 104 550C104 206 304 -24 628 -24ZM287 650C298 821 415 972 607 972C791 972 894 840 911 650Z" transform="translate(3606.981,2960.000) scale(0.02636719,-0.02636719)" fill="#111827"/>
<path d="M471 -26C660 -26 765 73 803 152H815V0H992V737C992 1086 723 1132 573 1132C400 1132 208 1070 122 867L295 810C330 888 417 974 578 974C733 974 812 894 812 755V749C812 666 724 672 525 647C318 621 90 574 90 318C90 98 259 -26 471 -26ZM502 133C368 133 271 193 271 309C271 436 386 478 517 495C586 504 782 524 812 559V404C812 267 701 133 502 133Z" transform="translate(3638.464,2960.000) scale(0.02636719,-0.02636719)" fill="#111827"/>
<path d="M338 670C338 861 459 970 620 970C776 970 872 867 872 695V0H1052V710C1052 993 900 1132 674 1132C524 1132 404 1069 332 911L331 1118H158V0H338Z" transform="translate(3668.786,2960.000) scale(0.02636719,-0.02636719)" fill="#111827"/>
<path d="M158 0H338V1118H158ZM249 1301C318 1301 375 1354 375 1420C375 1486 318 1539 249 1539C181 1539 124 1486 124 1420C124 1354 181 1301 249 1301Z" transform="translate(3700.690,2960.000) scale(0.02636719,-0.02636719)" fill="#111827"/>
<path d="M338 670C338 861 459 970 620 970C776 970 872 867 872 695V0H1052V710C1052 993 900 1132 674 1132C524 1132 404 1069 332 911L331 1118H158V0H338Z" transform="translate(3713.769,2960.000) scale(0.02636719,-0.02636719)" fill="#111827"/>
<path d="M611 -442C883 -442 1098 -318 1098 -29V1118H923V939H906C868 999 796 1132 580 1132C301 1132 104 910 104 564C104 213 308 18 576 18C792 18 863 141 901 205H918V-19C918 -203 789 -285 611 -285C414 -285 344 -185 297 -120L151 -214C220 -337 363 -442 611 -442ZM606 178C396 178 287 338 287 568C287 791 393 971 606 971C812 971 920 805 920 568C920 324 809 178 606 178Z" transform="translate(3745.673,2960.000) scale(0.02636719,-0.02636719)" fill="#111827"/>
<path d="M678 1118H420V1227C420 1335 468 1393 579 1393C629 1393 657 1382 676 1376L726 1530C699 1542 643 1560 558 1560C395 1560 240 1461 240 1267V1118H20V964H240V0H420V964H678Z" transform="translate(3778.790,2960.000) scale(0.02636719,-0.02636719)" fill="#111827"/>
<path d="M537 -14C684 -14 806 46 879 209V0H1053V1118H872V448C872 257 751 148 591 148C435 148 338 251 338 423V1118H158V408C158 125 311 -14 537 -14Z" transform="translate(3798.776,2960.000) scale(0.02636719,-0.02636719)" fill="#111827"/>
<path d="M338 1490H158V0H338Z" transform="translate(3830.707,2960.000) scale(0.02636719,-0.02636719)" fill="#111827"/>
<path d="M783 -20C1088 -20 1332 166 1384 469H1194C1152 266 978 156 783 156C516 156 307 363 307 744C307 1126 515 1334 783 1334C977 1334 1152 1225 1194 1021H1384C1331 1328 1085 1510 783 1510C401 1510 122 1217 122 744C122 272 401 -20 783 -20Z" transform="translate(3858.973,2960.000) scale(0.02636719,-0.02636719)" fill="#111827"/>
<path d="M471 -26C660 -26 765 73 803 152H815V0H992V737C992 1086 723 1132 573 1132C400 1132 208 1070 122 867L295 810C330 888 417 974 578 974C733 974 812 894 812 755V749C812 666 724 672 525 647C318 621 90 574 90 318C90 98 259 -26 471 -26ZM502 133C368 133 271 193 271 309C271 436 386 478 517 495C586 504 782 524 812 559V404C812 267 701 133 502 133Z" transform="translate(3898.418,2960.000) scale(0.02636719,-0.02636719)" fill="#111827"/>
<path d="M158 0H338V700C338 851 456 960 617 960C665 960 714 952 725 950V1131C704 1132 660 1134 634 1134C501 1134 385 1059 344 946H332V1118H158Z" transform="translate(3928.740,2960.000) scale(0.02636719,-0.02636719)" fill="#111827"/>
<path d="M628 -24C857 -24 1024 91 1076 260L902 308C860 194 761 136 629 136C431 136 295 264 286 498H1094V573C1094 986 844 1132 607 1132C302 1132 104 893 104 550C104 206 304 -24 628 -24ZM287 650C298 821 415 972 607 972C791 972 894 840 911 650Z" transform="translate(3949.069,2960.000) scale(0.02636719,-0.02636719)" fill="#111827"/>
<path d="M628 -24C857 -24 1024 91 1076 260L902 308C860 194 761 136 629 136C431 136 295 264 286 498H1094V573C1094 986 844 1132 607 1132C302 1132 104 893 104 550C104 206 304 -24 628 -24ZM287 650C298 821 415 972 607 972C791 972 894 840 911 650Z" transform="translate(3980.552,2960.000) scale(0.02636719,-0.02636719)" fill="#111827"/>
<path d="M158 0H338V700C338 851 456 960 617 960C665 960 714 952 725 950V1131C704 1132 660 1134 634 1134C501 1134 385 1059 344 946H332V1118H158Z" transform="translate(4012.034,2960.000) scale(0.02636719,-0.02636719)" fill="#111827"/>
<path d="M370 1490H180V0H370Z" transform="translate(4047.551,2960.000) scale(0.02636719,-0.02636719)" fill="#111827"/>
<path d="M338 670C338 861 459 970 620 970C776 970 872 867 872 695V0H1052V710C1052 993 900 1132 674 1132C524 1132 404 1069 332 911L331 1118H158V0H338Z" transform="translate(4062.053,2960.000) scale(0.02636719,-0.02636719)" fill="#111827"/>
<path d="M598 1118H368V1384H188V1118H20V964H188V276C188 93 302 -14 495 -14C541 -14 592 -7 629 6L592 158C562 152 523 146 500 146C405 146 368 190 368 290V964H598Z" transform="translate(4093.957,2960.000) scale(0.02636719,-0.02636719)" fill="#111827"/>
<path d="M628 -24C857 -24 1024 91 1076 260L902 308C860 194 761 136 629 136C431 136 295 264 286 498H1094V573C1094 986 844 1132 607 1132C302 1132 104 893 104 550C104 206 304 -24 628 -24ZM287 650C298 821 415 972 607 972C791 972 894 840 911 650Z" transform="translate(4111.623,2960.000) scale(0.02636719,-0.02636719)" fill="#111827"/>
<path d="M338 1490H158V0H338Z" transform="translate(4143.105,2960.000) scale(0.02636719,-0.02636719)" fill="#111827"/>
<path d="M338 1490H158V0H338Z" transform="translate(4156.184,2960.000) scale(0.02636719,-0.02636719)" fill="#111827"/>
<path d="M158 0H338V1118H158ZM249 1301C318 1301 375 1354 375 1420C375 1486 318 1539 249 1539C181 1539 124 1486 124 1420C124 1354 181 1301 249 1301Z" transform="translate(4169.262,2960.000) scale(0.02636719,-0.02636719)" fill="#111827"/>
<path d="M611 -442C883 -442 1098 -318 1098 -29V1118H923V939H906C868 999 796 1132 580 1132C301 1132 104 910 104 564C104 213 308 18 576 18C792 18 863 141 901 205H918V-19C918 -203 789 -285 611 -285C414 -285 344 -185 297 -120L151 -214C220 -337 363 -442 611 -442ZM606 178C396 178 287 338 287 568C287 791 393 971 606 971C812 971 920 805 920 568C920 324 809 178 606 178Z" transform="translate(4182.340,2960.000) scale(0.02636719,-0.02636719)" fill="#111827"/>
<path d="M628 -24C857 -24 1024 91 1076 260L902 308C860 194 761 136 629 136C431 136 295 264 286 498H1094V573C1094 986 844 1132 607 1132C302 1132 104 893 104 550C104 206 304 -24 628 -24ZM287 650C298 821 415 972 607 972C791 972 894 840 911 650Z" transform="translate(4215.457,2960.000) scale(0.02636719,-0.02636719)" fill="#111827"/>
<path d="M338 670C338 861 459 970 620 970C776 970 872 867 872 695V0H1052V710C1052 993 900 1132 674 1132C524 1132 404 1069 332 911L331 1118H158V0H338Z" transform="translate(4246.939,2960.000) scale(0.02636719,-0.02636719)" fill="#111827"/>
<path d="M613 -24C832 -24 1010 95 1070 294L898 343C865 222 763 137 613 137C390 137 287 332 287 552C287 775 390 971 613 971C760 971 860 889 893 774L1066 823C1005 1018 829 1132 613 1132C309 1132 104 902 104 552C104 207 309 -24 613 -24Z" transform="translate(4278.844,2960.000) scale(0.02636719,-0.02636719)" fill="#111827"/>
<path d="M628 -24C857 -24 1024 91 1076 260L902 308C860 194 761 136 629 136C431 136 295 264 286 498H1094V573C1094 986 844 1132 607 1132C302 1132 104 893 104 550C104 206 304 -24 628 -24ZM287 650C298 821 415 972 607 972C791 972 894 840 911 650Z" transform="translate(4309.693,2960.000) scale(0.02636719,-0.02636719)" fill="#111827"/>
</svg>