<svg xmlns="http://www.w3.org/2000/svg" viewBox="0 0 6000 1500" width="6000" height="1500">


<polygon points="314.00,530.00 925.00,266.80 925.00,473.60 314.00,736.80" fill="#111827"/>
<polygon points="314.00,783.80 925.00,520.60 925.00,727.40 314.00,990.60" fill="#111827"/>
<polygon points="624.20,906.00 925.00,1028.20 925.00,1188.00 624.20,1065.80" fill="#111827"/>
<rect x="1370" y="276" width="4" height="920" fill="#BCC6D1"/>
<path d="M135 0H1134V253H440V628H1080V877H440V1237H1132V1490H135Z" transform="translate(1590.000,922.000) scale(0.30273438,-0.30273438)" fill="#111827"/>
<path d="M135 0H438V703C438 815 430 1034 427 1215C480 1015 540 806 575 703L826 0H1083L1330 703C1365 809 1428 1026 1478 1227C1475 1039 1467 815 1467 703V0H1774V1490H1304L1066 806C1036 711 990 512 956 351C921 513 875 712 845 806L603 1490H135Z" transform="translate(1970.602,922.000) scale(0.30273438,-0.30273438)" fill="#111827"/>
<path d="M786 -20C1162 -20 1394 233 1428 510H1119C1089 348 961 251 791 251C561 251 404 421 404 744C404 1060 559 1239 792 1239C962 1239 1090 1143 1118 981H1427C1383 1316 1125 1510 786 1510C393 1510 94 1231 94 744C94 260 389 -20 786 -20Z" transform="translate(2552.219,922.000) scale(0.30273438,-0.30273438)" fill="#111827"/>
<path d="M440 1490H135V0H440Z" transform="translate(3014.861,922.000) scale(0.30273438,-0.30273438)" fill="#111827"/>
<path d="M180 0H1097V168H370V668H1039V836H370V1322H1088V1490H180Z" transform="translate(1604.000,1160.000) scale(0.05175781,-0.05175781)" fill="#111827"/>
<path d="M471 -26C660 -26 765 73 803 152H815V0H992V737C992 1086 723 1132 573 1132C400 1132 208 1070 122 867L295 810C330 888 417 974 578 974C733 974 812 894 812 755V749C812 666 724 672 525 647C318 621 90 574 90 318C90 98 259 -26 471 -26ZM502 133C368 133 271 193 271 309C271 436 386 478 517 495C586 504 782 524 812 559V404C812 267 701 133 502 133Z" transform="translate(1667.714,1160.000) scale(0.05175781,-0.05175781)" fill="#111827"/>
<path d="M158 0H338V700C338 851 456 960 617 960C665 960 714 952 725 950V1131C704 1132 660 1134 634 1134C501 1134 385 1059 344 946H332V1118H158Z" transform="translate(1727.235,1160.000) scale(0.05175781,-0.05175781)" fill="#111827"/>
<path d="M338 1490H158V0H338Z" transform="translate(1767.141,1160.000) scale(0.05175781,-0.05175781)" fill="#111827"/>
<path d="M140 -405C159 -414 208 -426 272 -426C430 -426 538 -345 606 -167L1097 1118H901L661 455C626 358 600 261 575 168C549 261 524 357 489 455L251 1118H54L481 -6L449 -99C394 -259 315 -283 205 -254L186 -249Z" transform="translate(1792.812,1160.000) scale(0.05175781,-0.05175781)" fill="#111827"/>
<path d="M471 -26C660 -26 765 73 803 152H815V0H992V737C992 1086 723 1132 573 1132C400 1132 208 1070 122 867L295 810C330 888 417 974 578 974C733 974 812 894 812 755V749C812 666 724 672 525 647C318 621 90 574 90 318C90 98 259 -26 471 -26ZM502 133C368 133 271 193 271 309C271 436 386 478 517 495C586 504 782 524 812 559V404C812 267 701 133 502 133Z" transform="translate(1882.198,1160.000) scale(0.05175781,-0.05175781)" fill="#111827"/>
<path d="M338 670C338 861 459 970 620 970C776 970 872 867 872 695V0H1052V710C1052 993 900 1132 674 1132C524 1132 404 1069 332 911L331 1118H158V0H338Z" transform="translate(1941.720,1160.000) scale(0.05175781,-0.05175781)" fill="#111827"/>
<path d="M577 -24C790 -24 865 111 902 173H922V0H1096V1490H916V939H902C865 998 796 1132 578 1132C299 1132 104 910 104 556C104 200 298 -24 577 -24ZM604 137C395 137 287 323 287 558C287 790 392 971 604 971C810 971 918 805 918 558C918 309 807 137 604 137Z" transform="translate(2004.347,1160.000) scale(0.05175781,-0.05175781)" fill="#111827"/>
<path d="M180 0H361V851C361 966 357 1142 354 1284C413 1109 471 935 504 851L842 0H1007L1340 851C1374 938 1436 1117 1490 1287C1486 1132 1483 961 1483 851V0H1670V1490H1399L1037 550C1008 475 962 328 927 211C892 332 845 478 817 550L450 1490H180Z" transform="translate(2099.063,1160.000) scale(0.05175781,-0.05175781)" fill="#111827"/>
<path d="M628 -24C857 -24 1024 91 1076 260L902 308C860 194 761 136 629 136C431 136 295 264 286 498H1094V573C1094 986 844 1132 607 1132C302 1132 104 893 104 550C104 206 304 -24 628 -24ZM287 650C298 821 415 972 607 972C791 972 894 840 911 650Z" transform="translate(2194.815,1160.000) scale(0.05175781,-0.05175781)" fill="#111827"/>
<path d="M471 -26C660 -26 765 73 803 152H815V0H992V737C992 1086 723 1132 573 1132C400 1132 208 1070 122 867L295 810C330 888 417 974 578 974C733 974 812 894 812 755V749C812 666 724 672 525 647C318 621 90 574 90 318C90 98 259 -26 471 -26ZM502 133C368 133 271 193 271 309C271 436 386 478 517 495C586 504 782 524 812 559V404C812 267 701 133 502 133Z" transform="translate(2256.614,1160.000) scale(0.05175781,-0.05175781)" fill="#111827"/>
<path d="M338 670C338 861 459 970 620 970C776 970 872 867 872 695V0H1052V710C1052 993 900 1132 674 1132C524 1132 404 1069 332 911L331 1118H158V0H338Z" transform="translate(2316.136,1160.000) scale(0.05175781,-0.05175781)" fill="#111827"/>
<path d="M158 0H338V1118H158ZM249 1301C318 1301 375 1354 375 1420C375 1486 318 1539 249 1539C181 1539 124 1486 124 1420C124 1354 181 1301 249 1301Z" transform="translate(2378.763,1160.000) scale(0.05175781,-0.05175781)" fill="#111827"/>
<path d="M338 670C338 861 459 970 620 970C776 970 872 867 872 695V0H1052V710C1052 993 900 1132 674 1132C524 1132 404 1069 332 911L331 1118H158V0H338Z" transform="translate(2404.435,1160.000) scale(0.05175781,-0.05175781)" fill="#111827"/>
<path d="M611 -442C883 -442 1098 -318 1098 -29V1118H923V939H906C868 999 796 1132 580 1132C301 1132 104 910 104 564C104 213 308 18 576 18C792 18 863 141 901 205H918V-19C918 -203 789 -285 611 -285C414 -285 344 -185 297 -120L151 -214C220 -337 363 -442 611 -442ZM606 178C396 178 287 338 287 568C287 791 393 971 606 971C812 971 920 805 920 568C920 324 809 178 606 178Z" transform="translate(2467.062,1160.000) scale(0.05175781,-0.05175781)" fill="#111827"/>
<path d="M678 1118H420V1227C420 1335 468 1393 579 1393C629 1393 657 1382 676 1376L726 1530C699 1542 643 1560 558 1560C395 1560 240 1461 240 1267V1118H20V964H240V0H420V964H678Z" transform="translate(2532.069,1160.000) scale(0.05175781,-0.05175781)" fill="#111827"/>
<path d="M537 -14C684 -14 806 46 879 209V0H1053V1118H872V448C872 257 751 148 591 148C435 148 338 251 338 423V1118H158V408C158 125 311 -14 537 -14Z" transform="translate(2571.302,1160.000) scale(0.05175781,-0.05175781)" fill="#111827"/>
<path d="M338 1490H158V0H338Z" transform="translate(2633.980,1160.000) scale(0.05175781,-0.05175781)" fill="#111827"/>
<path d="M783 -20C1088 -20 1332 166 1384 469H1194C1152 266 978 156 783 156C516 156 307 363 307 744C307 1126 515 1334 783 1334C977 1334 1152 1225 1194 1021H1384C1331 1328 1085 1510 783 1510C401 1510 122 1217 122 744C122 272 401 -20 783 -20Z" transform="translate(2689.465,1160.000) scale(0.05175781,-0.05175781)" fill="#111827"/>
<path d="M471 -26C660 -26 765 73 803 152H815V0H992V737C992 1086 723 1132 573 1132C400 1132 208 1070 122 867L295 810C330 888 417 974 578 974C733 974 812 894 812 755V749C812 666 724 672 525 647C318 621 90 574 90 318C90 98 259 -26 471 -26ZM502 133C368 133 271 193 271 309C271 436 386 478 517 495C586 504 782 524 812 559V404C812 267 701 133 502 133Z" transform="translate(2766.895,1160.000) scale(0.05175781,-0.05175781)" fill="#111827"/>
<path d="M158 0H338V700C338 851 456 960 617 960C665 960 714 952 725 950V1131C704 1132 660 1134 634 1134C501 1134 385 1059 344 946H332V1118H158Z" transform="translate(2826.416,1160.000) scale(0.05175781,-0.05175781)" fill="#111827"/>
<path d="M628 -24C857 -24 1024 91 1076 260L902 308C860 194 761 136 629 136C431 136 295 264 286 498H1094V573C1094 986 844 1132 607 1132C302 1132 104 893 104 550C104 206 304 -24 628 -24ZM287 650C298 821 415 972 607 972C791 972 894 840 911 650Z" transform="translate(2866.321,1160.000) scale(0.05175781,-0.05175781)" fill="#111827"/>
<path d="M628 -24C857 -24 1024 91 1076 260L902 308C860 194 761 136 629 136C431 136 295 264 286 498H1094V573C1094 986 844 1132 607 1132C302 1132 104 893 104 550C104 206 304 -24 628 -24ZM287 650C298 821 415 972 607 972C791 972 894 840 911 650Z" transform="translate(2928.120,1160.000) scale(0.05175781,-0.05175781)" fill="#111827"/>
<path d="M158 0H338V700C338 851 456 960 617 960C665 960 714 952 725 950V1131C704 1132 660 1134 634 1134C501 1134 385 1059 344 946H332V1118H158Z" transform="translate(2989.919,1160.000) scale(0.05175781,-0.05175781)" fill="#111827"/>
<path d="M370 1490H180V0H370Z" transform="translate(3059.637,1160.000) scale(0.05175781,-0.05175781)" fill="#111827"/>
<path d="M338 670C338 861 459 970 620 970C776 970 872 867 872 695V0H1052V710C1052 993 900 1132 674 1132C524 1132 404 1069 332 911L331 1118H158V0H338Z" transform="translate(3088.104,1160.000) scale(0.05175781,-0.05175781)" fill="#111827"/>
<path d="M598 1118H368V1384H188V1118H20V964H188V276C188 93 302 -14 495 -14C541 -14 592 -7 629 6L592 158C562 152 523 146 500 146C405 146 368 190 368 290V964H598Z" transform="translate(3150.730,1160.000) scale(0.05175781,-0.05175781)" fill="#111827"/>
<path d="M628 -24C857 -24 1024 91 1076 260L902 308C860 194 761 136 629 136C431 136 295 264 286 498H1094V573C1094 986 844 1132 607 1132C302 1132 104 893 104 550C104 206 304 -24 628 -24ZM287 650C298 821 415 972 607 972C791 972 894 840 911 650Z" transform="translate(3185.408,1160.000) scale(0.05175781,-0.05175781)" fill="#111827"/>
<path d="M338 1490H158V0H338Z" transform="translate(3247.207,1160.000) scale(0.05175781,-0.05175781)" fill="#111827"/>
<path d="M338 1490H158V0H338Z" transform="translate(3272.879,1160.000) scale(0.05175781,-0.05175781)" fill="#111827"/>
<path d="M158 0H338V1118H158ZM249 1301C318 1301 375 1354 375 1420C375 1486 318 1539 249 1539C181 1539 124 1486 124 1420C124 1354 181 1301 249 1301Z" transform="translate(3298.551,1160.000) scale(0.05175781,-0.05175781)" fill="#111827"/>
<path d="M611 -442C883 -442 1098 -318 1098 -29V1118H923V939H906C868 999 796 1132 580 1132C301 1132 104 910 104 564C104 213 308 18 576 18C792 18 863 141 901 205H918V-19C918 -203 789 -285 611 -285C414 -285 344 -185 297 -120L151 -214C220 -337 363 -442 611 -442ZM606 178C396 178 287 338 287 568C287 791 393 971 606 971C812 971 920 805 920 568C920 324 809 178 606 178Z" transform="translate(3324.223,1160.000) scale(0.05175781,-0.05175781)" fill="#111827"/>
<path d="M628 -24C857 -24 1024 91 1076 260L902 308C860 194 761 136 629 136C431 136 295 264 286 498H1094V573C1094 986 844 1132 607 1132C302 1132 104 893 104 550C104 206 304 -24 628 -24ZM287 650C298 821 415 972 607 972C791 972 894 840 911 650Z" transform="translate(3389.230,1160.000) scale(0.05175781,-0.05175781)" fill="#111827"/>
<path d="M338 670C338 861 459 970 620 970C776 970 872 867 872 695V0H1052V710C1052 993 900 1132 674 1132C524 1132 404 1069 332 911L331 1118H158V0H338Z" transform="translate(3451.029,1160.000) scale(0.05175781,-0.05175781)" fill="#111827"/>
<path d="M613 -24C832 -24 1010 95 1070 294L898 343C865 222 763 137 613 137C390 137 287 332 287 552C287 775 390 971 613 971C760 971 860 889 893 774L1066 823C1005 1018 829 1132 613 1132C309 1132 104 902 104 552C104 207 309 -24 613 -24Z" transform="translate(3513.656,1160.000) scale(0.05175781,-0.05175781)" fill="#111827"/>
<path d="M628 -24C857 -24 1024 91 1076 260L902 308C860 194 761 136 629 136C431 136 295 264 286 498H1094V573C1094 986 844 1132 607 1132C302 1132 104 893 104 550C104 206 304 -24 628 -24ZM287 650C298 821 415 972 607 972C791 972 894 840 911 650Z" transform="translate(3574.213,1160.000) scale(0.05175781,-0.05175781)" fill="#111827"/>
</svg>