<svg xmlns="http://www.w3.org/2000/svg" viewBox="0 0 6000 1500" width="6000" height="1500">


<polygon points="314.00,530.00 925.00,266.80 925.00,473.60 314.00,736.80" fill="#102B4C"/>
<polygon points="314.00,783.80 925.00,520.60 925.00,727.40 314.00,990.60" fill="#3C6178"/>
<polygon points="624.20,906.00 925.00,1028.20 925.00,1188.00 624.20,1065.80" fill="#0D817D"/>
<rect x="1370" y="276" width="4" height="920" fill="#BCC6D1"/>
<path d="M135 0H1134V253H440V628H1080V877H440V1237H1132V1490H135Z" transform="translate(1590.000,922.000) scale(0.30273438,-0.30273438)" fill="#102B4C"/>
<path d="M135 0H438V703C438 815 430 1034 427 1215C480 1015 540 806 575 703L826 0H1083L1330 703C1365 809 1428 1026 1478 1227C1475 1039 1467 815 1467 703V0H1774V1490H1304L1066 806C1036 711 990 512 956 351C921 513 875 712 845 806L603 1490H135Z" transform="translate(1970.602,922.000) scale(0.30273438,-0.30273438)" fill="#102B4C"/>
<path d="M786 -20C1162 -20 1394 233 1428 510H1119C1089 348 961 251 791 251C561 251 404 421 404 744C404 1060 559 1239 792 1239C962 1239 1090 1143 1118 981H1427C1383 1316 1125 1510 786 1510C393 1510 94 1231 94 744C94 260 389 -20 786 -20Z" transform="translate(2552.219,922.000) scale(0.30273438,-0.30273438)" fill="#102B4C"/>
<path d="M440 1490H135V0H440Z" transform="translate(3014.861,922.000) scale(0.30273438,-0.30273438)" fill="#102B4C"/>
</svg>